# xmcd
#
# Track frame offsets:
#	150
#	16647
#	31365
#	51680
#	73042
#	91317
#	106697
#	123530
#	144085
#	166167
#	188675
#	207460
#	226087
#
# Disc length: 3249 seconds
#
# Revision: 0
# Processed by: cddbd v1.4PL0 Copyright (c) Steve Scherf et al.
# Submitted via: dBpowerAMP V4.0
#
DISCID=a50caf0d
DTITLE=Patria - My Rules
DYEAR=1999
DGENRE=Pop
TTITLE0=My Rules
TTITLE1=Baby Feel My
TTITLE2=First Love
TTITLE3=Passion
TTITLE4=My Flow
TTITLE5=Boyfriend
TTITLE6=Addicted
TTITLE7=My Wish
TTITLE8=I've Missed You
TTITLE9=One More Chance
TTITLE10=Good Love
TTITLE11=Heart 2 Heart
TTITLE12=One Door Closes
EXTD=
EXTT0=
EXTT1=
EXTT2=
EXTT3=
EXTT4=
EXTT5=
EXTT6=
EXTT7=
EXTT8=
EXTT9=
EXTT10=
EXTT11=
EXTT12=
PLAYORDER=
